<svg xmlns="http://www.w3.org/2000/svg" viewBox="0 0 64 64">
  <title>W</title>
  <g fill="none" stroke="#30343b" stroke-width="1.5" stroke-linecap="round">
    <path d="M10 10v44M21 10v44M32 10v44M43 10v44M54 10v44"/>
    <path d="M10 10h44M10 21h44M10 32h44M10 43h44M10 54h44"/>
  </g>
  <g fill="#111">
    <circle cx="10" cy="10" r="5"/>
    <circle cx="54" cy="10" r="5"/>
    <circle cx="10" cy="21" r="5"/>
    <circle cx="54" cy="21" r="5"/>
    <circle cx="10" cy="32" r="5"/>
    <circle cx="32" cy="32" r="5"/>
    <circle cx="54" cy="32" r="5"/>
    <circle cx="10" cy="43" r="5"/>
    <circle cx="32" cy="43" r="5"/>
    <circle cx="54" cy="43" r="5"/>
    <circle cx="21" cy="54" r="5"/>
    <circle cx="43" cy="54" r="5"/>
  </g>
</svg>
